<svg width="19" height="137" viewBox="0 0 19 137" fill="none" xmlns="http://www.w3.org/2000/svg">
<path fill-rule="evenodd" clip-rule="evenodd" d="M9.9003 120.781C4.9848 120.781 1 124.408 1 128.881C1 133.355 4.9848 136.981 9.9003 136.981C14.8158 136.981 18.8006 133.355 18.8006 128.881C18.8006 126.733 17.8629 124.673 16.1938 123.154C14.5246 121.635 12.2608 120.781 9.9003 120.781ZM17.0204 128.881C16.0011 128.603 14.9428 128.461 13.8786 128.46C13.2454 128.468 12.6142 128.525 11.9917 128.63C11.7692 128.136 11.5378 127.658 11.2886 127.18C12.7523 126.515 14.087 125.636 15.2403 124.58C16.3955 125.765 17.0294 127.297 17.0204 128.881ZM10.6746 126.111C11.9952 125.508 13.1979 124.712 14.2347 123.754C12.9931 122.881 11.4694 122.405 9.90026 122.401C9.32413 122.404 8.75038 122.469 8.19141 122.596C9.11973 123.706 9.95005 124.882 10.6746 126.111ZM6.89211 123.017C7.85673 124.149 8.71705 125.352 9.46431 126.613C7.901 127.169 6.23848 127.457 4.56022 127.464C4.03378 127.458 3.50797 127.429 2.98486 127.375C3.49059 125.457 4.92878 123.853 6.89211 123.017ZM2.77979 128.573V128.881C2.78391 130.48 3.43689 132.02 4.61324 133.207C5.99814 131.157 8.15598 129.637 10.6832 128.93C10.4963 128.509 10.2827 128.104 10.0691 127.699L10.0691 127.699C8.31789 128.341 6.44805 128.674 4.55984 128.679C3.96468 128.677 3.37021 128.642 2.77979 128.573ZM5.61035 134.041C6.83119 132.118 8.81573 130.695 11.1552 130.064C11.781 131.638 12.2255 133.266 12.4814 134.924C10.1807 135.747 7.57426 135.415 5.61035 134.049V134.041ZM12.4722 129.788C13.0402 131.266 13.4631 132.787 13.736 134.332C15.3702 133.382 16.5081 131.867 16.8867 130.137C15.9166 129.843 14.9009 129.692 13.8784 129.691C13.4078 129.695 12.938 129.728 12.4722 129.788Z" fill="#7B7B7B"/>
<path d="M18.796 42.9611C18.3103 43.6171 17.7232 44.1893 17.0574 44.6556C17.0574 44.827 17.0574 44.9983 17.0574 45.1792C17.0628 48.2909 15.8351 51.2747 13.6498 53.4616C11.4644 55.6485 8.50415 56.8555 5.43257 56.8122C3.65683 56.8182 1.90382 56.4076 0.310872 55.6127C0.22498 55.5747 0.169581 55.4887 0.169907 55.3937V55.289C0.169907 55.1523 0.279301 55.0415 0.414245 55.0415C2.15976 54.9833 3.84301 54.3705 5.22583 53.2899C3.64589 53.2577 2.22435 52.31 1.57015 50.8529C1.53711 50.7733 1.5474 50.682 1.5973 50.612C1.64721 50.542 1.72952 50.5034 1.81449 50.5102C2.29467 50.559 2.77964 50.5138 3.24293 50.3769C1.49881 50.0103 0.188305 48.5443 0.000750257 46.7499C-0.00591569 46.6638 0.0321828 46.5805 0.101282 46.5299C0.170382 46.4794 0.260494 46.4689 0.339065 46.5024C0.807109 46.7115 1.31236 46.8217 1.82389 46.8261C0.295629 45.8105 -0.364477 43.8787 0.216895 42.1234C0.276907 41.9528 0.421084 41.8268 0.596444 41.7917C0.771805 41.7565 0.952481 41.8175 1.07208 41.952C3.13437 44.1744 5.96799 45.4987 8.97548 45.6457C8.89844 45.3344 8.86055 45.0146 8.8627 44.6937C8.89083 43.0112 9.91899 41.5124 11.4658 40.899C13.0127 40.2856 14.7721 40.679 15.9203 41.8949C16.703 41.744 17.4597 41.4778 18.1663 41.1048C18.2181 41.0721 18.2837 41.0721 18.3355 41.1048C18.3678 41.1572 18.3678 41.2237 18.3355 41.2762C17.9932 42.0697 17.415 42.7353 16.6815 43.1801C17.3239 43.1047 17.9549 42.9512 18.561 42.7231C18.6121 42.688 18.6792 42.688 18.7302 42.7231C18.773 42.7429 18.8049 42.7808 18.8176 42.8267C18.8303 42.8725 18.8224 42.9217 18.796 42.9611Z" fill="#7B7B7B"/>
<path d="M13.398 3.2293H10.746C10.2578 3.2293 9.862 3.63224 9.862 4.1293V6.8293H13.398C13.4985 6.82703 13.5939 6.87465 13.6537 6.95699C13.7135 7.03932 13.7302 7.14611 13.6986 7.2433L13.0444 9.2233C12.9841 9.40502 12.8173 9.52787 12.6289 9.5293H9.862V16.2793C9.862 16.5278 9.66411 16.7293 9.42 16.7293H7.21C6.96589 16.7293 6.768 16.5278 6.768 16.2793V9.5293H5.442C5.19789 9.5293 5 9.32783 5 9.0793V7.2793C5 7.03077 5.19789 6.8293 5.442 6.8293H6.768V4.1293C6.768 2.14107 8.35112 0.529297 10.304 0.529297H13.398C13.6421 0.529297 13.84 0.730769 13.84 0.979297V2.7793C13.84 3.02783 13.6421 3.2293 13.398 3.2293Z" fill="#7B7B7B"/>
<path fill-rule="evenodd" clip-rule="evenodd" d="M1 82.6032C1 81.5506 1.89543 80.6973 3 80.6973C3.53043 80.6973 4.03914 80.8981 4.41421 81.2555C4.78929 81.6129 5 82.0977 5 82.6032C5 83.6558 4.10457 84.5091 3 84.5091C1.89543 84.5091 1 83.6558 1 82.6032ZM18.5 90.6173C18.5345 88.554 17.0574 86.746 14.95 86.2718C13.5377 85.982 12.0657 86.362 11 87.2915V86.8912C11 86.6281 10.7761 86.4147 10.5 86.4147H8C7.72386 86.4147 7.5 86.6281 7.5 86.8912V96.4208C7.5 96.684 7.72386 96.8973 8 96.8973H10.5C10.7761 96.8973 11 96.684 11 96.4208V91.0461C10.9753 90.0891 11.6752 89.2533 12.66 89.064C13.2463 88.9675 13.8473 89.1249 14.2996 89.4933C14.752 89.8617 15.0087 90.4029 15 90.9699V96.4208C15 96.684 15.2239 96.8973 15.5 96.8973H18C18.2761 96.8973 18.5 96.684 18.5 96.4208V90.6173ZM5 86.8914V96.4208C5 96.6839 4.77614 96.8972 4.5 96.8972H2C1.72386 96.8972 1.5 96.6839 1.5 96.4208V86.8914C1.5 86.6282 1.72386 86.4149 2 86.4149H4.5C4.77614 86.4149 5 86.6282 5 86.8914Z" fill="#7B7B7B"/>
</svg>
